<svg xmlns="http://www.w3.org/2000/svg" viewBox="0 0 1200 800" role="img" aria-labelledby="title desc">
  <title id="title">Ayanda salon mock gallery image</title>
  <desc id="desc">Mock women-in-leadership salon scene for profile gallery previews.</desc>
  <defs>
    <linearGradient id="bg" x1="0" x2="1" y1="0" y2="1">
      <stop offset="0%" stop-color="#f1e7f6"/>
      <stop offset="100%" stop-color="#a47cb8"/>
    </linearGradient>
  </defs>
  <rect width="1200" height="800" fill="url(#bg)"/>
  <circle cx="976" cy="166" r="118" fill="rgba(255,255,255,0.18)"/>
  <rect x="94" y="110" width="1012" height="588" rx="34" fill="rgba(255,255,255,0.5)"/>
  <ellipse cx="366" cy="470" rx="214" ry="108" fill="#f6efe7"/>
  <ellipse cx="830" cy="470" rx="214" ry="108" fill="#f6efe7"/>
  <circle cx="306" cy="352" r="54" fill="#c88c68"/>
  <circle cx="420" cy="332" r="50" fill="#d6a07b"/>
  <circle cx="794" cy="346" r="54" fill="#c88c68"/>
  <circle cx="906" cy="330" r="48" fill="#d6a07b"/>
  <path d="M250 474c24-44 54-72 84-72 34 0 64 28 92 72H250Z" fill="#395066"/>
  <path d="M748 474c24-44 54-72 84-72 34 0 64 28 92 72H748Z" fill="#503a61"/>
  <text x="600" y="646" fill="#5d4e68" font-family="Georgia, 'Times New Roman', serif" font-size="42" text-anchor="middle">Women in Leadership Salon</text>
</svg>
